<svg xmlns="http://www.w3.org/2000/svg" xmlns:xlink="http://www.w3.org/1999/xlink" width="377" zoomAndPan="magnify" viewBox="0 0 282.75 62.999997" height="84" preserveAspectRatio="xMidYMid meet" version="1.0"><defs><g/></defs><g fill="#ffc527" fill-opacity="1"><g transform="translate(0.382511, 49.316093)"><g><path d="M 12.09375 0 L 0.265625 -36.828125 L 11.515625 -36.828125 L 14.09375 -28.625 L 17.828125 -17.15625 L 21.5625 -28.625 L 24.3125 -36.828125 L 34.40625 -36.828125 L 40.9375 -16.828125 L 44.71875 -28.625 L 47.296875 -36.828125 L 58.453125 -36.828125 L 46.609375 0 L 36.03125 0 L 29.359375 -20.46875 L 22.671875 0 Z M 12.09375 0 "/></g></g></g><g fill="#ffc527" fill-opacity="1"><g transform="translate(56.447193, 49.316093)"><g><path d="M 21.828125 0.796875 C 18.878906 0.796875 16.1875 0.332031 13.75 -0.59375 C 11.3125 -1.53125 9.195312 -2.859375 7.40625 -4.578125 C 5.625 -6.296875 4.238281 -8.328125 3.25 -10.671875 C 2.269531 -13.023438 1.78125 -15.601562 1.78125 -18.40625 C 1.78125 -21.21875 2.269531 -23.796875 3.25 -26.140625 C 4.238281 -28.492188 5.625 -30.53125 7.40625 -32.25 C 9.195312 -33.96875 11.3125 -35.289062 13.75 -36.21875 C 16.1875 -37.144531 18.878906 -37.609375 21.828125 -37.609375 C 24.773438 -37.609375 27.46875 -37.144531 29.90625 -36.21875 C 32.34375 -35.289062 34.457031 -33.96875 36.25 -32.25 C 38.039062 -30.53125 39.425781 -28.492188 40.40625 -26.140625 C 41.382812 -23.796875 41.875 -21.21875 41.875 -18.40625 C 41.875 -15.601562 41.382812 -13.023438 40.40625 -10.671875 C 39.425781 -8.328125 38.039062 -6.296875 36.25 -4.578125 C 34.457031 -2.859375 32.34375 -1.53125 29.90625 -0.59375 C 27.46875 0.332031 24.773438 0.796875 21.828125 0.796875 Z M 12.578125 -18.40625 C 12.578125 -16.582031 12.96875 -14.960938 13.75 -13.546875 C 14.539062 -12.128906 15.640625 -11.023438 17.046875 -10.234375 C 18.453125 -9.441406 20.046875 -9.046875 21.828125 -9.046875 C 23.648438 -9.046875 25.253906 -9.441406 26.640625 -10.234375 C 28.023438 -11.023438 29.113281 -12.128906 29.90625 -13.546875 C 30.695312 -14.960938 31.09375 -16.582031 31.09375 -18.40625 C 31.09375 -20.269531 30.695312 -21.898438 29.90625 -23.296875 C 29.113281 -24.703125 28.023438 -25.800781 26.640625 -26.59375 C 25.253906 -27.382812 23.648438 -27.78125 21.828125 -27.78125 C 20.046875 -27.78125 18.453125 -27.382812 17.046875 -26.59375 C 15.640625 -25.800781 14.539062 -24.703125 13.75 -23.296875 C 12.96875 -21.898438 12.578125 -20.269531 12.578125 -18.40625 Z M 12.578125 -18.40625 "/></g></g></g><g fill="#ffc527" fill-opacity="1"><g transform="translate(97.522532, 49.316093)"><g><path d="M 3.890625 0 L 3.890625 -36.828125 L 20.671875 -36.828125 C 23.648438 -36.828125 26.21875 -36.289062 28.375 -35.21875 C 30.539062 -34.15625 32.207031 -32.640625 33.375 -30.671875 C 34.550781 -28.703125 35.140625 -26.351562 35.140625 -23.625 C 35.140625 -21.0625 34.613281 -18.820312 33.5625 -16.90625 C 32.507812 -15 31.003906 -13.503906 29.046875 -12.421875 L 35.828125 0 L 23.78125 0 L 18.515625 -10.46875 L 14.515625 -10.46875 L 14.515625 0 Z M 14.3125 -18.9375 L 19.25 -18.9375 C 20.9375 -18.9375 22.226562 -19.335938 23.125 -20.140625 C 24.019531 -20.953125 24.46875 -22.09375 24.46875 -23.5625 C 24.46875 -25.039062 24.019531 -26.171875 23.125 -26.953125 C 22.226562 -27.742188 20.9375 -28.140625 19.25 -28.140625 L 14.3125 -28.140625 Z M 14.3125 -18.9375 "/></g></g></g><g fill="#ffc527" fill-opacity="1"><g transform="translate(132.759925, 49.316093)"><g><path d="M 1.109375 0 L 13.3125 -18.78125 L 1.734375 -36.828125 L 13.625 -36.828125 L 16.78125 -31.71875 L 20.25 -26.203125 L 23.671875 -31.71875 L 26.890625 -36.828125 L 38.71875 -36.828125 L 27.203125 -18.890625 L 39.40625 0 L 26.984375 0 L 23.3125 -6 L 20.25 -10.890625 L 13.46875 0 Z M 1.109375 0 "/></g></g></g><g fill="#ffc527" fill-opacity="1"><g transform="translate(170.679616, 49.316093)"><g><path d="M 13.671875 0 L 13.671875 -12.78125 L 0.265625 -36.828125 L 12.203125 -36.828125 L 16.09375 -29.203125 L 18.9375 -23.625 L 25.625 -36.828125 L 37.671875 -36.828125 L 24.25 -12.84375 L 24.25 0 Z M 13.671875 0 "/></g></g></g><g fill="#000000" fill-opacity="1"><g transform="translate(205.970258, 49.316093)"><g><path d="M 7.15625 0.6875 C 5.507812 0.6875 4.160156 0.171875 3.109375 -0.859375 C 2.054688 -1.898438 1.53125 -3.207031 1.53125 -4.78125 C 1.53125 -6.363281 2.054688 -7.671875 3.109375 -8.703125 C 4.160156 -9.742188 5.507812 -10.265625 7.15625 -10.265625 C 8.800781 -10.265625 10.140625 -9.742188 11.171875 -8.703125 C 12.210938 -7.671875 12.734375 -6.363281 12.734375 -4.78125 C 12.734375 -3.207031 12.210938 -1.898438 11.171875 -0.859375 C 10.140625 0.171875 8.800781 0.6875 7.15625 0.6875 Z M 7.15625 0.6875 "/></g></g></g><g fill="#020301" fill-opacity="1"><g transform="translate(217.5967, 49.316093)"><g><path d="M 3.890625 0 L 3.890625 -36.828125 L 19.40625 -36.828125 C 22.53125 -36.828125 25.238281 -36.265625 27.53125 -35.140625 C 29.832031 -34.015625 31.601562 -32.414062 32.84375 -30.34375 C 34.09375 -28.28125 34.71875 -25.828125 34.71875 -22.984375 C 34.71875 -20.179688 34.09375 -17.734375 32.84375 -15.640625 C 31.601562 -13.554688 29.832031 -11.941406 27.53125 -10.796875 C 25.238281 -9.660156 22.53125 -9.09375 19.40625 -9.09375 L 14.515625 -9.09375 L 14.515625 0 Z M 14.421875 -18 L 18.40625 -18 C 20.164062 -18 21.535156 -18.4375 22.515625 -19.3125 C 23.492188 -20.1875 23.984375 -21.394531 23.984375 -22.9375 C 23.984375 -24.476562 23.492188 -25.6875 22.515625 -26.5625 C 21.535156 -27.445312 20.164062 -27.890625 18.40625 -27.890625 L 14.421875 -27.890625 Z M 14.421875 -18 "/></g></g></g><g fill="#020301" fill-opacity="1"><g transform="translate(250.888108, 49.316093)"><g><path d="M 3.890625 0 L 3.890625 -36.828125 L 14.515625 -36.828125 L 14.515625 -9.84375 L 29.5625 -9.84375 L 29.5625 0 Z M 3.890625 0 "/></g></g></g></svg>